<svg xmlns="http://www.w3.org/2000/svg" viewBox="0 0 960 700" style="background-color: #ffffff; font-family: sans-serif;">
  <defs>
    <marker id="arrow_2563eb" markerWidth="10" markerHeight="7" refX="9" refY="3.5" orient="auto"><polygon points="0 0, 10 3.5, 0 7" fill="#2563eb"/></marker>
    <marker id="arrow_059669" markerWidth="10" markerHeight="7" refX="9" refY="3.5" orient="auto"><polygon points="0 0, 10 3.5, 0 7" fill="#059669"/></marker>
    <marker id="arrow_ea580c" markerWidth="10" markerHeight="7" refX="9" refY="3.5" orient="auto"><polygon points="0 0, 10 3.5, 0 7" fill="#ea580c"/></marker>
    <marker id="arrow_9333ea" markerWidth="10" markerHeight="7" refX="9" refY="3.5" orient="auto"><polygon points="0 0, 10 3.5, 0 7" fill="#9333ea"/></marker>
    <marker id="arrow_6b7280" markerWidth="10" markerHeight="7" refX="9" refY="3.5" orient="auto"><polygon points="0 0, 10 3.5, 0 7" fill="#6b7280"/></marker>
  </defs>
    <rect x="40" y="140" width="880" height="100" rx="12" fill="#f8fafc" stroke="#cbd5e1" stroke-width="2" stroke-dasharray="8,4" opacity="0.6"/>
    <text x="56" y="164" font-family="sans-serif" font-size="14" font-weight="bold" fill="#64748b">Application Layer</text>
    <rect x="40" y="300" width="880" height="110" rx="12" fill="#f8fafc" stroke="#cbd5e1" stroke-width="2" stroke-dasharray="8,4" opacity="0.6"/>
    <text x="56" y="324" font-family="sans-serif" font-size="14" font-weight="bold" fill="#64748b">Processing Modules</text>
    <rect x="40" y="470" width="880" height="120" rx="12" fill="#f8fafc" stroke="#cbd5e1" stroke-width="2" stroke-dasharray="8,4" opacity="0.6"/>
    <text x="56" y="494" font-family="sans-serif" font-size="14" font-weight="bold" fill="#64748b">Ecosystem &amp; Storage</text>
  <!-- Arrows -->
    <line x1="250" y1="95" x2="250" y2="170" stroke="#2563eb" stroke-width="2"  marker-end="url(#arrow_2563eb)"/>
    <rect x="220.0" y="122.5" width="60" height="20" fill="#ffffff" opacity="0.9" rx="4"/>
    <text x="250.0" y="132.5" font-family="sans-serif" font-size="11" fill="#2563eb" text-anchor="middle" dominant-baseline="middle">Commands</text>

    <line x1="690" y1="95" x2="690" y2="170" stroke="#2563eb" stroke-width="2"  marker-end="url(#arrow_2563eb)"/>
    <rect x="660.0" y="122.5" width="60" height="20" fill="#ffffff" opacity="0.9" rx="4"/>
    <text x="690.0" y="132.5" font-family="sans-serif" font-size="11" fill="#2563eb" text-anchor="middle" dominant-baseline="middle">MCP Query</text>

    <path d="M 210,230 L 210,280 L 140,280 L 140,330" stroke="#059669" stroke-width="2" fill="none"  marker-end="url(#arrow_059669)"/>
    <rect x="145" y="270" width="60" height="20" fill="#ffffff" opacity="0.9" rx="4"/>
    <text x="175" y="280" font-family="sans-serif" font-size="11" fill="#059669" text-anchor="middle" dominant-baseline="middle">Extract</text>

    <path d="M 290,230 L 290,280 L 360,280 L 360,330" stroke="#059669" stroke-width="2" fill="none"  marker-end="url(#arrow_059669)"/>
    <rect x="295" y="270" width="60" height="20" fill="#ffffff" opacity="0.9" rx="4"/>
    <text x="325" y="280" font-family="sans-serif" font-size="11" fill="#059669" text-anchor="middle" dominant-baseline="middle">Generate</text>

    <path d="M 330,230 L 330,265 L 560,265 L 560,330" stroke="#059669" stroke-width="2" fill="none"  marker-end="url(#arrow_059669)"/>
    <rect x="415" y="255" width="60" height="20" fill="#ffffff" opacity="0.9" rx="4"/>
    <text x="445" y="265" font-family="sans-serif" font-size="11" fill="#059669" text-anchor="middle" dominant-baseline="middle">Build Graph</text>

    <path d="M 610,230 L 610,280 L 600,280 L 600,330" stroke="#2563eb" stroke-width="2" fill="none"  marker-end="url(#arrow_2563eb)"/>
    <rect x="575" y="270" width="60" height="20" fill="#ffffff" opacity="0.9" rx="4"/>
    <text x="605" y="280" font-family="sans-serif" font-size="11" fill="#2563eb" text-anchor="middle" dominant-baseline="middle">Search</text>

    <path d="M 750,230 L 750,280 L 800,280 L 800,325" stroke="#2563eb" stroke-width="2" fill="none"  marker-end="url(#arrow_2563eb)"/>
    <rect x="745" y="270" width="60" height="20" fill="#ffffff" opacity="0.9" rx="4"/>
    <text x="775" y="280" font-family="sans-serif" font-size="11" fill="#2563eb" text-anchor="middle" dominant-baseline="middle">Semantic</text>

    <path d="M 220,230 L 220,490" stroke="#ea580c" stroke-width="2" fill="none"  marker-end="url(#arrow_ea580c)"/>
    <rect x="190" y="380" width="60" height="20" fill="#ffffff" opacity="0.9" rx="4"/>
    <text x="220" y="390" font-family="sans-serif" font-size="11" fill="#ea580c" text-anchor="middle" dominant-baseline="middle">HTTP Write</text>

    <path d="M 280,230 L 280,450 L 380,450 L 380,485" stroke="#ea580c" stroke-width="2" fill="none"  marker-end="url(#arrow_ea580c)"/>
    <rect x="300" y="440" width="60" height="20" fill="#ffffff" opacity="0.9" rx="4"/>
    <text x="330" y="450" font-family="sans-serif" font-size="11" fill="#ea580c" text-anchor="middle" dominant-baseline="middle">Direct Repair</text>

    <path d="M 660,230 L 660,430 L 285,430 A 5,5 0 0,1 275,430 L 225,430 A 5,5 0 0,1 215,430 L 180,430 L 180,490" stroke="#9333ea" stroke-width="2" fill="none"  marker-end="url(#arrow_9333ea)"/>
    <rect x="390" y="420" width="60" height="20" fill="#ffffff" opacity="0.9" rx="4"/>
    <text x="420" y="430" font-family="sans-serif" font-size="11" fill="#9333ea" text-anchor="middle" dominant-baseline="middle">Read/Write</text>

    <path d="M 690,230 L 690,440 L 400,440 L 400,485" stroke="#9333ea" stroke-width="2" fill="none"  marker-end="url(#arrow_9333ea)"/>
    <rect x="515" y="430" width="60" height="20" fill="#ffffff" opacity="0.9" rx="4"/>
    <text x="545" y="440" font-family="sans-serif" font-size="11" fill="#9333ea" text-anchor="middle" dominant-baseline="middle">Query DB</text>

    <path d="M 670,230 L 670,490" stroke="#9333ea" stroke-width="2" fill="none"  marker-end="url(#arrow_9333ea)"/>
    <rect x="640" y="380" width="60" height="20" fill="#ffffff" opacity="0.9" rx="4"/>
    <text x="670" y="390" font-family="sans-serif" font-size="11" fill="#9333ea" text-anchor="middle" dominant-baseline="middle">Read Docs</text>

    <path d="M 140,390 L 140,620 L 600,620 L 600,550" stroke="#6b7280" stroke-width="2" fill="none" stroke-dasharray="5,5" marker-end="url(#arrow_6b7280)"/>
    <rect x="340" y="610" width="60" height="20" fill="#ffffff" opacity="0.9" rx="4"/>
    <text x="370" y="620" font-family="sans-serif" font-size="11" fill="#6b7280" text-anchor="middle" dominant-baseline="middle">Parse Content</text>

    <path d="M 580,390 L 580,600 L 800,600 L 800,550" stroke="#6b7280" stroke-width="2" fill="none" stroke-dasharray="5,5" marker-end="url(#arrow_6b7280)"/>
    <rect x="660" y="590" width="60" height="20" fill="#ffffff" opacity="0.9" rx="4"/>
    <text x="690" y="600" font-family="sans-serif" font-size="11" fill="#6b7280" text-anchor="middle" dominant-baseline="middle">Export</text>

  <!-- Nodes -->
    <rect x="180.0" y="45.0" width="140" height="50" rx="8" fill="#e0f2fe" stroke="#0284c7" stroke-width="2"/>
    <text x="250" y="60" font-family="sans-serif" font-size="14" fill="#1e293b" text-anchor="middle" dominant-baseline="middle" font-weight="bold">User</text>
    <text x="250" y="80" font-family="sans-serif" font-size="12" fill="#1e293b" text-anchor="middle" dominant-baseline="middle" >(CLI)</text>

    <rect x="600.0" y="45.0" width="180" height="50" rx="8" fill="#f3e8ff" stroke="#9333ea" stroke-width="2"/>
    <text x="690" y="60" font-family="sans-serif" font-size="14" fill="#1e293b" text-anchor="middle" dominant-baseline="middle" font-weight="bold">AI Assistants</text>
    <text x="690" y="80" font-family="sans-serif" font-size="12" fill="#1e293b" text-anchor="middle" dominant-baseline="middle" >(Claude / ChatGPT)</text>

    <rect x="150.0" y="170.0" width="200" height="60" rx="8" fill="#dbeafe" stroke="#2563eb" stroke-width="2"/>
    <text x="250" y="190" font-family="sans-serif" font-size="14" fill="#1e293b" text-anchor="middle" dominant-baseline="middle" font-weight="bold">zotero_llm_metadata</text>
    <text x="250" y="210" font-family="sans-serif" font-size="12" fill="#1e293b" text-anchor="middle" dominant-baseline="middle" >Batch CLI Process</text>

    <rect x="590.0" y="170.0" width="200" height="60" rx="8" fill="#dce1ff" stroke="#4f46e5" stroke-width="2"/>
    <text x="690" y="190" font-family="sans-serif" font-size="14" fill="#1e293b" text-anchor="middle" dominant-baseline="middle" font-weight="bold">Zotero MCP Server</text>
    <text x="690" y="210" font-family="sans-serif" font-size="12" fill="#1e293b" text-anchor="middle" dominant-baseline="middle" >Real-time API</text>

    <rect x="70.0" y="330.0" width="140" height="60" rx="8" fill="#f1f5f9" stroke="#64748b" stroke-width="2"/>
    <text x="140" y="350" font-family="sans-serif" font-size="14" fill="#1e293b" text-anchor="middle" dominant-baseline="middle" font-weight="bold">File Extractor</text>
    <text x="140" y="370" font-family="sans-serif" font-size="12" fill="#1e293b" text-anchor="middle" dominant-baseline="middle" >PDF/Word/Images</text>

    <rect x="290.0" y="330.0" width="140" height="60" rx="8" fill="#fef3c7" stroke="#d97706" stroke-width="2"/>
    <text x="360" y="350" font-family="sans-serif" font-size="14" fill="#1e293b" text-anchor="middle" dominant-baseline="middle" font-weight="bold">LLM Client</text>
    <text x="360" y="370" font-family="sans-serif" font-size="12" fill="#1e293b" text-anchor="middle" dominant-baseline="middle" >DashScope / VL</text>

    <rect x="510.0" y="330.0" width="140" height="60" rx="8" fill="#ecfdf5" stroke="#059669" stroke-width="2"/>
    <text x="580" y="350" font-family="sans-serif" font-size="14" fill="#1e293b" text-anchor="middle" dominant-baseline="middle" font-weight="bold">Graph Engine</text>
    <text x="580" y="370" font-family="sans-serif" font-size="12" fill="#1e293b" text-anchor="middle" dominant-baseline="middle" >NetworkX / Pyvis</text>

    <path d="M 730.0,325.0 L 730.0,395.0 A 70.0,10 0 0,0 870.0,395.0 L 870.0,325.0 Z" fill="#fdf4ff" stroke="#c026d3" stroke-width="2"/>
    <ellipse cx="800" cy="325.0" rx="70.0" ry="10" fill="#fdf4ff" stroke="#c026d3" stroke-width="2"/>
    <text x="800" y="355" font-family="sans-serif" font-size="14" fill="#1e293b" text-anchor="middle" dominant-baseline="middle" font-weight="bold">Vector DB</text>
    <text x="800" y="375" font-family="sans-serif" font-size="12" fill="#1e293b" text-anchor="middle" dominant-baseline="middle" >ChromaDB</text>

    <rect x="110.0" y="490.0" width="140" height="60" rx="8" fill="#ffedd5" stroke="#ea580c" stroke-width="2"/>
    <text x="180" y="510" font-family="sans-serif" font-size="14" fill="#1e293b" text-anchor="middle" dominant-baseline="middle" font-weight="bold">Zotero API</text>
    <text x="180" y="530" font-family="sans-serif" font-size="12" fill="#1e293b" text-anchor="middle" dominant-baseline="middle" >HTTP Connector</text>

    <path d="M 310.0,485.0 L 310.0,555.0 A 70.0,10 0 0,0 450.0,555.0 L 450.0,485.0 Z" fill="#fce7f3" stroke="#db2777" stroke-width="2"/>
    <ellipse cx="380" cy="485.0" rx="70.0" ry="10" fill="#fce7f3" stroke="#db2777" stroke-width="2"/>
    <text x="380" y="515" font-family="sans-serif" font-size="14" fill="#1e293b" text-anchor="middle" dominant-baseline="middle" font-weight="bold">Zotero DB</text>
    <text x="380" y="535" font-family="sans-serif" font-size="12" fill="#1e293b" text-anchor="middle" dominant-baseline="middle" >SQLite</text>

    <rect x="530.0" y="490.0" width="140" height="60" rx="8" fill="#f1f5f9" stroke="#475569" stroke-width="2"/>
    <text x="600" y="510" font-family="sans-serif" font-size="14" fill="#1e293b" text-anchor="middle" dominant-baseline="middle" font-weight="bold">Local Files</text>
    <text x="600" y="530" font-family="sans-serif" font-size="12" fill="#1e293b" text-anchor="middle" dominant-baseline="middle" >Attachments</text>

    <rect x="730.0" y="490.0" width="140" height="60" rx="8" fill="#f3f4f6" stroke="#4b5563" stroke-width="2"/>
    <text x="800" y="510" font-family="sans-serif" font-size="14" fill="#1e293b" text-anchor="middle" dominant-baseline="middle" font-weight="bold">Graph Storage</text>
    <text x="800" y="530" font-family="sans-serif" font-size="12" fill="#1e293b" text-anchor="middle" dominant-baseline="middle" >graph.json / HTML</text>

  <text x="480" y="30" font-family="sans-serif" font-size="24" font-weight="bold" fill="#1e293b" text-anchor="middle">Zotero LLM Metadata &amp; MCP Server Architecture</text>
</svg>